<?xml version="1.0" encoding="UTF-8"?>
<!DOCTYPE svg PUBLIC "-//W3C//DTD SVG 1.1//EN" "http://www.w3.org/Graphics/SVG/1.1/DTD/svg11.dtd">
<!-- Creator: CorelDRAW X6 -->
<svg xmlns="http://www.w3.org/2000/svg" xml:space="preserve" width="11.1111in" height="11.1111in" version="1.1" style="shape-rendering:geometricPrecision; text-rendering:geometricPrecision; image-rendering:optimizeQuality; fill-rule:evenodd; clip-rule:evenodd"
viewBox="0 0 11111 11111"
 xmlns:xlink="http://www.w3.org/1999/xlink">
 <defs>
  <style type="text/css">
   <![CDATA[
    .fil10 {fill:#8A8A8C}
    .fil1 {fill:#3A646D;fill-rule:nonzero}
    .fil0 {fill:#427582;fill-rule:nonzero}
    .fil4 {fill:#77CFE8;fill-rule:nonzero}
    .fil3 {fill:#80DDFF;fill-rule:nonzero}
    .fil9 {fill:#8A8A8C;fill-rule:nonzero}
    .fil6 {fill:#EF5048;fill-rule:nonzero}
    .fil8 {fill:#EFC15B;fill-rule:nonzero}
    .fil5 {fill:#FF6454;fill-rule:nonzero}
    .fil7 {fill:#FFD160;fill-rule:nonzero}
    .fil2 {fill:white;fill-rule:nonzero}
   ]]>
  </style>
 </defs>
 <g id="__x0023_Layer_x0020_1">
  <metadata id="CorelCorpID_0Corel-Layer"/>
  <g id="_318313120">
   <g>
    <g>
     <g>
      <path class="fil0" d="M5338 7692c0,1174 -952,2127 -2127,2127 -1174,0 -2127,-952 -2127,-2127 0,-1174 952,-2127 2127,-2127 1174,0 2127,952 2127,2127z"/>
     </g>
     <g>
      <g>
       <path class="fil1" d="M3211 5566l0 4253c1174,0 2127,-952 2127,-2127 0,-1174 -952,-2127 -2127,-2127z"/>
      </g>
     </g>
    </g>
   </g>
   <path class="fil2" d="M3741 6433l-1059 0c-101,0 -183,82 -183,183l0 2151c0,101 82,183 183,183l1059 0c101,0 183,-82 183,-183l0 -2151c0,-101 -82,-183 -183,-183zm-791 111l0 0 523 0c13,0 24,20 24,44 0,24 -11,44 -24,44l-523 0c-13,0 -24,-20 -24,-44 0,-24 11,-44 24,-44zm262 2226l0 0c-65,0 -117,-53 -117,-117 0,-65 52,-117 117,-117 64,0 117,52 117,117 0,65 -52,117 -117,117zm576 -401l0 0 -1151 0 0 -1627 1151 0 0 1627z"/>
  </g>
  <g id="_318313984">
   <g>
    <g>
     <path class="fil3" d="M10066 3059c0,1174 -952,2127 -2127,2127 -1174,0 -2127,-952 -2127,-2127 0,-1174 952,-2127 2127,-2127 1174,0 2127,952 2127,2127z"/>
    </g>
    <g>
     <g>
      <path class="fil4" d="M7940 932l0 4253c1174,0 2127,-952 2127,-2127 0,-1174 -952,-2127 -2127,-2127z"/>
     </g>
    </g>
   </g>
   <g>
    <g>
     <path class="fil2" d="M9066 3744l-364 -364c-73,-72 -193,-70 -268,5l-184 184c-12,-6 -24,-13 -36,-20 -116,-64 -275,-152 -441,-319 -167,-167 -256,-326 -320,-442 -7,-12 -13,-24 -20,-35l123 -123 61 -61c75,-75 77,-195 5,-268l-364 -364c-72,-72 -193,-70 -268,5l-103 103 3 3c-34,44 -63,95 -85,149 -20,52 -32,102 -38,151 -48,399 134,763 629,1258 684,684 1235,632 1258,629 52,-6 101,-19 152,-38 54,-21 105,-50 149,-84l2 2 104 -102c75,-75 77,-195 5,-268z"/>
    </g>
   </g>
  </g>
  <g id="_318313696">
   <g>
    <g>
     <path class="fil5" d="M5286 3059c0,1174 -952,2127 -2127,2127 -1174,0 -2127,-952 -2127,-2127 0,-1174 952,-2127 2127,-2127 1174,0 2127,952 2127,2127z"/>
    </g>
    <g>
     <g>
      <path class="fil6" d="M3159 932l0 4253c1174,0 2127,-952 2127,-2127 0,-1174 -952,-2127 -2127,-2127z"/>
     </g>
    </g>
   </g>
   <g>
    <path class="fil2" d="M4090 3936c51,0 95,-17 133,-50l-642 -642c-15,11 -30,22 -44,32 -48,35 -87,63 -117,83 -30,20 -70,40 -119,61 -50,21 -96,31 -139,31l-1 0 -1 0c-43,0 -89,-10 -139,-31 -50,-21 -90,-41 -119,-61 -30,-20 -69,-47 -117,-83 -13,-10 -28,-21 -44,-32l-642 642c38,33 82,50 133,50l1861 0z"/>
    <path class="fil2" d="M2180 2840c-48,-32 -91,-69 -128,-110l0 977 566 -566c-113,-79 -259,-179 -438,-301z"/>
    <path class="fil2" d="M4139 2840c-172,117 -319,217 -439,301l566 566 0 -977c-36,40 -78,77 -126,110z"/>
    <path class="fil2" d="M4090 2182l-1861 0c-65,0 -115,22 -150,66 -35,44 -52,99 -52,164 0,53 23,111 70,173 46,62 96,111 148,146 29,20 115,80 259,180 78,54 145,101 204,141 50,35 92,64 128,89 4,3 10,7 19,13 9,7 21,15 35,25 27,20 50,36 68,48 18,12 40,26 66,41 26,15 50,27 73,34 23,8 44,11 63,11l1 0 1 0c19,0 40,-4 63,-11 23,-8 47,-19 73,-34 26,-15 48,-29 66,-41 18,-12 41,-28 68,-48 14,-10 26,-19 35,-25 8,-6 15,-11 19,-13 27,-19 70,-49 128,-89 105,-73 259,-180 464,-322 62,-43 113,-95 154,-155 41,-61 62,-124 62,-191 0,-56 -20,-103 -60,-143 -40,-40 -87,-59 -142,-59z"/>
   </g>
  </g>
  <g id="_318315016">
   <g>
    <g>
     <path class="fil7" d="M10022 7692c0,1174 -952,2127 -2127,2127 -1174,0 -2127,-952 -2127,-2127 0,-1174 952,-2127 2127,-2127 1174,0 2127,952 2127,2127z"/>
    </g>
    <g>
     <g>
      <path class="fil8" d="M7896 5566l0 4253c1174,0 2127,-952 2127,-2127 0,-1174 -952,-2127 -2127,-2127z"/>
     </g>
    </g>
   </g>
   <path class="fil2" d="M8986 7094c-57,-123 -135,-227 -234,-312 -100,-85 -217,-150 -353,-196 -136,-45 -282,-68 -440,-68 -167,0 -325,29 -474,86 -149,58 -281,140 -394,246 -113,107 -203,235 -270,386 -67,151 -100,320 -100,507 0,184 29,346 87,485 58,140 140,257 243,352 104,94 227,166 368,214 142,48 296,72 462,72 94,0 178,-7 251,-21 73,-14 145,-38 215,-72 0,0 50,-71 21,-150 -28,-79 -101,-97 -101,-97 -52,24 -109,42 -173,54 -64,12 -120,18 -170,18 -148,0 -279,-20 -393,-60 -114,-40 -210,-98 -287,-172 -77,-75 -136,-165 -176,-272 -40,-106 -60,-227 -60,-361 0,-136 24,-261 72,-377 48,-116 115,-216 200,-300 85,-84 185,-150 300,-198 115,-48 239,-72 373,-72 117,0 226,14 327,41 101,27 189,71 264,130 75,59 133,134 176,225 43,91 64,201 64,330 0,89 -11,167 -32,232 -21,65 -49,119 -84,162 -34,43 -73,75 -116,95 -43,21 -87,31 -131,31 -45,0 -73,-18 -86,-54 -13,-36 -12,-95 1,-175l124 -698 -180 0 -80 82c-34,-29 -72,-53 -113,-71 -41,-18 -92,-27 -152,-27 -87,0 -170,24 -248,71 -78,47 -147,109 -206,187 -59,77 -106,166 -140,267 -34,100 -51,204 -51,310 0,57 8,108 24,155 16,46 38,86 66,118 27,33 60,58 98,76 38,18 77,27 118,27 52,0 99,-8 142,-23 43,-15 82,-36 118,-63 36,-27 69,-57 99,-91 30,-34 58,-69 84,-106l10 0c-5,53 -2,98 10,134 12,36 30,65 55,88 25,22 56,38 93,48 37,9 77,14 120,14 103,0 200,-21 290,-62 90,-41 169,-97 237,-167 68,-70 121,-154 160,-250 39,-96 58,-199 58,-309 0,-156 -28,-296 -85,-418zm-932 679l0 0c-19,34 -40,67 -64,98 -24,31 -49,58 -75,82 -26,24 -52,43 -80,58 -27,15 -53,22 -77,22 -57,0 -97,-18 -120,-54 -23,-36 -35,-82 -35,-139 0,-55 9,-111 26,-169 17,-57 42,-109 73,-156 32,-46 70,-84 113,-113 44,-29 91,-44 143,-44 36,0 66,5 90,15 24,10 47,25 70,44l-64 355z"/>
  </g>
  <g id="_318314968">
   <g>
    <path class="fil9" d="M5253 10555l12 0 0 -15c0,-15 2,-27 6,-36 4,-9 10,-15 20,-20 9,-4 22,-6 38,-6 28,0 42,7 42,21 0,4 -1,8 -4,12 -3,3 -6,5 -10,5 -2,0 -5,0 -10,-1 -4,-1 -8,-1 -12,-1 -9,0 -14,3 -17,8 -2,5 -4,13 -4,22l0 12 12 0c19,0 28,6 28,17 0,8 -2,13 -7,15 -5,2 -12,3 -20,3l-12 0 0 128c0,10 -2,17 -7,22 -5,5 -10,8 -18,8 -7,0 -13,-3 -17,-8 -5,-5 -7,-12 -7,-22l0 -128 -13 0c-7,0 -13,-2 -17,-5 -4,-3 -6,-7 -6,-13 0,-12 8,-17 24,-17z"/>
    <path class="fil9" d="M5411 10678l0 41c0,10 -2,17 -7,22 -5,5 -10,7 -18,7 -7,0 -13,-2 -17,-7 -4,-5 -7,-12 -7,-22l0 -135c0,-22 8,-33 24,-33 8,0 14,3 17,8 4,5 6,13 6,23 6,-10 12,-17 18,-23 6,-5 14,-8 24,-8 10,0 20,3 30,8 10,5 14,12 14,20 0,6 -2,11 -6,15 -4,4 -8,6 -13,6 -2,0 -6,-1 -13,-3 -7,-2 -13,-3 -18,-3 -7,0 -13,2 -17,6 -5,4 -8,9 -11,17 -2,7 -4,16 -5,26 -1,10 -1,22 -1,37z"/>
    <path class="fil9" d="M5634 10661l-95 0c0,11 2,21 7,29 4,8 10,15 17,19 7,4 15,6 24,6 6,0 11,-1 16,-2 5,-1 9,-3 14,-6 5,-3 9,-6 12,-9 4,-3 9,-8 15,-13 2,-2 6,-3 11,-3 5,0 9,1 12,4 3,3 5,7 5,12 0,4 -2,9 -5,15 -3,6 -9,12 -16,17 -7,5 -16,10 -26,13 -10,4 -23,5 -36,5 -31,0 -55,-9 -73,-27 -17,-18 -26,-42 -26,-72 0,-14 2,-28 6,-40 4,-12 10,-23 19,-32 8,-9 18,-15 30,-20 12,-5 25,-7 40,-7 19,0 35,4 49,12 14,8 24,18 31,31 7,13 10,26 10,39 0,12 -4,20 -11,24 -7,4 -17,5 -29,5zm-95 -28l0 0 88 0c-1,-17 -6,-29 -13,-37 -8,-8 -18,-12 -31,-12 -12,0 -22,4 -30,13 -8,8 -12,21 -14,37z"/>
    <path class="fil9" d="M5836 10661l-95 0c0,11 2,21 7,29 4,8 10,15 17,19 7,4 15,6 24,6 6,0 11,-1 16,-2 5,-1 9,-3 14,-6 4,-3 9,-6 12,-9 4,-3 9,-8 15,-13 2,-2 6,-3 11,-3 5,0 9,1 12,4 3,3 5,7 5,12 0,4 -2,9 -5,15 -3,6 -8,12 -16,17 -7,5 -16,10 -26,13 -10,4 -23,5 -36,5 -31,0 -55,-9 -73,-27 -17,-18 -26,-42 -26,-72 0,-14 2,-28 6,-40 4,-12 10,-23 19,-32 8,-9 18,-15 30,-20 12,-5 25,-7 40,-7 19,0 35,4 49,12 13,8 24,18 30,31 7,13 10,26 10,39 0,12 -4,20 -10,24 -7,4 -17,5 -29,5zm-95 -28l0 0 88 0c-1,-17 -6,-29 -13,-37 -8,-8 -18,-12 -31,-12 -12,0 -22,4 -30,13 -8,8 -12,21 -14,37z"/>
    <path class="fil9" d="M5942 10578l0 6c9,-11 19,-19 28,-25 10,-5 21,-8 33,-8 15,0 29,4 41,12 13,8 22,19 30,34 7,15 11,32 11,53 0,15 -2,29 -6,41 -4,13 -10,23 -17,31 -7,8 -16,15 -26,20 -10,5 -21,7 -32,7 -14,0 -25,-3 -35,-8 -9,-5 -18,-14 -27,-24l0 73c0,21 -8,32 -23,32 -9,0 -15,-3 -18,-8 -3,-6 -4,-14 -4,-24l0 -209c0,-9 2,-16 6,-21 4,-5 10,-7 17,-7 7,0 12,2 17,7 4,5 6,11 6,20zm95 70l0 0c0,-13 -2,-24 -6,-33 -4,-9 -9,-16 -16,-21 -7,-5 -15,-7 -23,-7 -13,0 -25,5 -34,16 -9,11 -14,26 -14,47 0,19 5,34 14,45 9,11 20,16 34,16 8,0 16,-2 22,-7 7,-5 12,-12 17,-21 4,-9 6,-21 6,-34z"/>
    <path class="fil9" d="M6135 10528c-7,0 -13,-2 -17,-6 -5,-4 -7,-10 -7,-18 0,-7 2,-13 7,-17 5,-4 11,-7 17,-7 6,0 12,2 17,6 5,4 7,10 7,18 0,7 -2,13 -7,17 -5,4 -10,6 -17,6zm24 50l0 0 0 140c0,10 -2,17 -7,22 -5,5 -10,7 -18,7 -7,0 -13,-3 -17,-8 -4,-5 -7,-12 -7,-22l0 -139c0,-10 2,-17 7,-22 5,-5 10,-7 17,-7 7,0 13,2 18,7 5,5 7,12 7,20z"/>
    <path class="fil9" d="M6315 10726l-43 -70 -26 25 0 39c0,9 -3,16 -7,21 -5,5 -11,8 -17,8 -7,0 -13,-2 -18,-7 -4,-5 -6,-12 -6,-22l0 -207c0,-11 2,-19 6,-25 4,-6 10,-8 18,-8 8,0 13,3 18,8 4,5 7,13 7,22l0 118 54 -57c7,-7 12,-12 15,-15 4,-3 8,-4 13,-4 6,0 11,2 15,6 4,4 6,9 6,14 0,7 -7,17 -20,28l-26 24 50 78c4,6 6,10 8,13 2,3 2,6 2,9 0,8 -2,14 -6,18 -4,4 -10,7 -17,7 -6,0 -11,-2 -14,-5 -3,-3 -8,-9 -13,-17z"/>
    <path class="fil9" d="M6420 10748c-7,0 -14,-2 -19,-7 -5,-5 -8,-11 -8,-20 0,-7 3,-13 8,-19 5,-5 11,-8 19,-8 7,0 14,3 19,8 5,5 8,11 8,19 0,8 -3,15 -8,20 -5,5 -12,7 -19,7z"/>
    <path class="fil9" d="M6662 10688c0,6 -2,12 -5,19 -4,7 -9,13 -17,20 -7,6 -17,11 -28,15 -11,4 -24,6 -38,6 -30,0 -53,-9 -70,-26 -17,-17 -25,-41 -25,-70 0,-20 4,-37 12,-53 8,-15 19,-27 33,-35 15,-8 32,-13 52,-13 13,0 24,2 35,6 10,4 19,8 27,14 7,6 13,12 17,19 4,7 6,13 6,18 0,6 -2,11 -6,15 -4,4 -10,6 -16,6 -4,0 -7,-1 -10,-3 -3,-2 -6,-5 -9,-10 -6,-9 -12,-16 -19,-20 -6,-5 -15,-7 -25,-7 -14,0 -26,6 -35,17 -9,11 -13,27 -13,46 0,9 1,18 3,25 2,8 5,14 10,20 4,5 9,9 15,12 6,3 13,4 20,4 10,0 18,-2 25,-7 7,-5 13,-11 18,-21 3,-5 6,-10 10,-13 3,-3 8,-5 13,-5 6,0 11,2 15,7 4,4 6,9 6,14z"/>
    <path class="fil9" d="M6871 10649c0,14 -2,28 -7,40 -5,12 -11,23 -20,31 -8,9 -19,15 -30,20 -12,5 -25,7 -40,7 -15,0 -28,-2 -40,-7 -12,-5 -22,-12 -30,-20 -9,-9 -15,-19 -20,-31 -4,-12 -7,-25 -7,-40 0,-15 2,-28 7,-40 4,-12 11,-23 19,-31 8,-9 19,-15 31,-20 12,-5 25,-7 40,-7 15,0 28,2 40,7 12,5 22,12 31,20 9,9 15,19 19,31 4,12 7,25 7,40zm-49 0l0 0c0,-20 -4,-35 -13,-46 -9,-11 -20,-17 -35,-17 -9,0 -18,2 -25,7 -7,5 -13,12 -17,22 -4,10 -6,21 -6,34 0,13 2,24 6,33 4,10 9,17 17,22 7,5 16,8 25,8 15,0 26,-6 35,-17 9,-11 13,-26 13,-46z"/>
    <path class="fil9" d="M7056 10653l0 64c0,10 -2,18 -7,23 -5,5 -11,8 -18,8 -7,0 -13,-3 -18,-8 -5,-5 -7,-13 -7,-23l0 -77c0,-12 0,-22 -1,-28 -1,-7 -3,-12 -7,-17 -4,-4 -9,-7 -17,-7 -16,0 -26,5 -31,16 -5,11 -8,26 -8,47l0 65c0,10 -2,18 -7,23 -5,5 -11,8 -18,8 -7,0 -13,-3 -18,-8 -5,-5 -7,-13 -7,-23l0 -139c0,-9 2,-16 6,-21 4,-5 10,-7 17,-7 7,0 12,2 17,7 4,4 7,11 7,18l0 5c8,-10 17,-17 27,-22 10,-5 20,-7 32,-7 12,0 23,2 31,7 9,5 16,12 22,22 8,-10 17,-17 26,-22 9,-5 20,-7 31,-7 13,0 25,3 34,8 10,5 17,13 21,22 4,9 6,23 6,41l0 95c0,10 -2,18 -7,23 -5,5 -11,8 -18,8 -7,0 -13,-3 -18,-8 -5,-5 -7,-13 -7,-23l0 -82c0,-10 0,-19 -1,-25 -1,-6 -3,-12 -7,-16 -4,-4 -10,-6 -18,-6 -6,0 -12,2 -18,6 -6,4 -10,9 -13,15 -3,8 -5,23 -5,43z"/>
    <g>
     <path class="fil10" d="M4917 10765c0,0 -26,-4 -52,-32 -26,-28 -30,-59 -30,-59 0,0 33,8 57,10 42,5 79,2 97,0 38,-4 59,-11 67,-13 49,-12 96,-44 96,-44 0,0 6,37 -22,78 -11,16 -32,34 -57,47 -85,36 -156,13 -156,13z"/>
     <path class="fil10" d="M5117 10555c-9,-11 -40,-63 -101,-71 -16,-2 -99,1 -149,48 -5,5 -30,27 -39,68 -7,32 4,68 4,68 0,0 55,11 97,10 66,-2 99,-8 134,-18 51,-15 87,-41 87,-41 0,0 -24,-53 -34,-64zm-191 79l0 0c-28,2 -52,-19 -54,-47 -2,-28 20,-52 48,-53 28,-2 52,19 54,47 2,28 -20,52 -47,54zm143 -36l0 0c-18,1 -33,-12 -34,-30 -1,-17 12,-33 30,-34 18,-1 33,12 34,30 1,17 -12,33 -30,34z"/>
     <path class="fil10" d="M5093 10519l16 -19c0,0 22,11 36,31 14,21 23,39 23,39l-27 16c0,0 -8,-20 -21,-36 -12,-16 -29,-32 -29,-32z"/>
     <path class="fil10" d="M5144 10533c4,-3 11,-3 11,-9 0,-6 -4,-17 7,-21 12,-4 5,3 1,9 -4,5 -3,8 -2,16 0,7 -5,10 -13,14 -8,4 -8,-5 -4,-8z"/>
     <path class="fil10" d="M4849 10545c0,0 -19,22 -23,41 -5,20 -4,43 -4,43l-28 -10c0,0 -2,-27 11,-49 14,-24 32,-35 32,-35l12 9z"/>
     <path class="fil10" d="M4809 10569c-4,-3 -5,-10 -8,-14 -4,-5 -4,-2 -13,-2 -8,0 -8,-4 -11,-6 -2,-2 -3,6 -3,6 0,0 1,7 10,7 9,1 8,-4 12,4 4,8 11,14 11,14 0,0 6,-6 2,-9z"/>
     <path class="fil10" d="M4955 10467c45,-11 73,2 73,2l-2 13c0,0 -33,-2 -59,2 -26,4 -38,12 -38,12l-6 -13c0,0 12,-11 32,-15z"/>
     <polygon class="fil10" points="4968,10448 4975,10446 4983,10468 4977,10471 "/>
     <path class="fil10" d="M5167 10490c6,0 12,4 12,11 0,6 -4,12 -11,12 -6,0 -12,-4 -12,-11 0,-6 4,-12 11,-12z"/>
     <path class="fil10" d="M4771 10534c6,0 12,4 12,11 0,6 -4,12 -11,12 -6,0 -12,-4 -12,-11 0,-6 4,-12 11,-12z"/>
     <path class="fil10" d="M4974 10419c10,-1 19,7 20,17 1,10 -7,19 -17,19 -10,1 -19,-7 -20,-17 -1,-10 7,-19 17,-19z"/>
    </g>
   </g>
   <g>
    <path class="fil9" d="M3531 10721c0,11 -7,19 -17,19 -9,0 -15,-5 -17,-14 -6,10 -20,16 -31,16 -34,0 -56,-32 -56,-64 0,-33 18,-67 55,-67 12,0 23,4 32,12l0 -46c0,-11 7,-19 17,-19 10,0 17,8 17,19l0 145zm-61 -80l0 0c-18,0 -26,19 -26,35 0,16 9,34 26,34 19,0 27,-19 27,-35 0,-16 -8,-33 -27,-33z"/>
    <path class="fil9" d="M3578 10687c2,17 16,25 32,25 17,0 29,-14 38,-14 7,0 14,7 14,15 0,15 -30,29 -55,29 -38,0 -64,-28 -64,-65 0,-34 25,-66 61,-66 37,0 61,33 61,62 0,10 -4,15 -15,15l-72 0zm53 -23l0 0c-2,-15 -11,-26 -27,-26 -15,0 -25,11 -27,26l54 0z"/>
    <path class="fil9" d="M3748 10650c-6,0 -19,-10 -30,-10 -6,0 -12,3 -12,9 0,16 59,13 59,52 0,23 -19,40 -48,40 -19,0 -47,-11 -47,-26 0,-5 5,-15 15,-15 13,0 19,12 35,12 10,0 13,-3 13,-10 0,-16 -59,-13 -59,-52 0,-23 19,-40 46,-40 17,0 42,8 42,25 0,8 -6,15 -14,15z"/>
    <path class="fil9" d="M3813 10580c0,11 -8,20 -19,20 -10,0 -19,-9 -19,-20 0,-10 9,-19 19,-19 10,0 19,9 19,19zm-36 51l0 0c0,-11 7,-19 17,-19 10,0 17,8 17,19l0 90c0,11 -7,19 -17,19 -10,0 -17,-8 -17,-19l0 -90z"/>
    <path class="fil9" d="M3945 10729c0,41 -27,61 -65,61 -14,0 -53,-7 -53,-25 0,-6 7,-15 14,-15 11,0 23,11 42,11 16,0 29,-10 29,-27l0 -8 0 0c-7,10 -19,16 -34,16 -36,0 -52,-31 -52,-65 0,-34 22,-66 56,-66 12,0 25,5 31,15 2,-9 8,-14 17,-14 10,0 17,8 17,19l0 98zm-60 -87l0 0c-18,0 -26,18 -26,34 0,18 9,35 26,35 18,0 27,-17 27,-34 0,-16 -8,-35 -27,-35z"/>
    <path class="fil9" d="M3965 10631c0,-11 7,-19 17,-19 9,0 14,5 16,13 7,-9 17,-14 33,-14 27,0 46,17 46,46l0 65c0,11 -7,19 -17,19 -10,0 -17,-8 -17,-19l0 -59c0,-16 -10,-23 -22,-23 -14,0 -22,10 -22,23l0 59c0,11 -7,19 -17,19 -10,0 -17,-8 -17,-19l0 -90z"/>
    <path class="fil9" d="M4123 10687c2,17 16,25 32,25 17,0 29,-14 38,-14 7,0 14,7 14,15 0,15 -30,29 -55,29 -38,0 -64,-28 -64,-65 0,-34 25,-66 61,-66 37,0 61,33 61,62 0,10 -4,15 -15,15l-72 0zm53 -23l0 0c-2,-15 -11,-26 -27,-26 -15,0 -25,11 -27,26l54 0z"/>
    <path class="fil9" d="M4338 10721c0,11 -7,19 -17,19 -9,0 -15,-5 -17,-14 -6,10 -20,16 -31,16 -34,0 -56,-32 -56,-64 0,-33 18,-67 55,-67 12,0 23,4 32,12l0 -46c0,-11 7,-19 17,-19 10,0 17,8 17,19l0 145zm-60 -80l0 0c-18,0 -26,19 -26,35 0,16 9,34 26,34 19,0 27,-19 27,-35 0,-16 -8,-33 -27,-33z"/>
    <path class="fil9" d="M4420 10576c0,-11 7,-19 17,-19 10,0 17,8 17,19l0 46c9,-8 20,-12 32,-12 37,0 55,34 55,67 0,32 -22,64 -56,64 -11,0 -25,-5 -31,-16 -2,9 -8,14 -17,14 -10,0 -17,-8 -17,-19l0 -145zm60 134l0 0c18,0 26,-18 26,-34 0,-16 -9,-35 -26,-35 -18,0 -27,17 -27,33 0,17 8,35 27,35z"/>
    <path class="fil9" d="M4547 10635c-1,-3 -2,-5 -2,-9 0,-9 9,-15 16,-15 8,0 14,5 17,12l23 64 25 -64c3,-7 9,-12 17,-12 7,0 16,6 16,15 0,3 0,6 -2,9l-57 141c-3,7 -8,13 -16,13 -12,0 -18,-7 -18,-15 0,-3 1,-7 2,-10l15 -37 -37 -93z"/>
   </g>
  </g>
 </g>
</svg>
